<svg width="130" height="34" viewBox="0 0 130 34" fill="none" xmlns="http://www.w3.org/2000/svg">
<path d="M12.9659 15.1477L10.858 15.7443C10.7254 15.393 10.5298 15.0516 10.2713 14.7202C10.0194 14.3821 9.67472 14.1037 9.23722 13.8849C8.79972 13.6662 8.23958 13.5568 7.55682 13.5568C6.62216 13.5568 5.84328 13.7723 5.22017 14.2031C4.60369 14.6274 4.29545 15.1676 4.29545 15.8239C4.29545 16.4072 4.50758 16.8679 4.93182 17.206C5.35606 17.544 6.01894 17.8258 6.92045 18.0511L9.1875 18.608C10.553 18.9394 11.5705 19.4465 12.2401 20.1293C12.9096 20.8054 13.2443 21.6771 13.2443 22.7443C13.2443 23.6193 12.9924 24.4015 12.4886 25.0909C11.9915 25.7803 11.2955 26.3239 10.4006 26.7216C9.50568 27.1193 8.46496 27.3182 7.27841 27.3182C5.72064 27.3182 4.43134 26.9801 3.41051 26.304C2.38968 25.6278 1.74337 24.6402 1.47159 23.3409L3.69886 22.7841C3.91098 23.6061 4.31203 24.2225 4.90199 24.6335C5.49858 25.0445 6.27746 25.25 7.23864 25.25C8.33239 25.25 9.20076 25.018 9.84375 24.554C10.4934 24.0833 10.8182 23.5199 10.8182 22.8636C10.8182 22.3333 10.6326 21.8892 10.2614 21.5312C9.89015 21.1667 9.32008 20.8949 8.55114 20.7159L6.00568 20.1193C4.60701 19.7879 3.57955 19.2741 2.9233 18.5781C2.27367 17.8755 1.94886 16.9972 1.94886 15.9432C1.94886 15.0814 2.19081 14.3191 2.67472 13.6562C3.16525 12.9934 3.83144 12.473 4.6733 12.0952C5.52178 11.7173 6.48295 11.5284 7.55682 11.5284C9.06818 11.5284 10.2547 11.8598 11.1165 12.5227C11.9848 13.1856 12.6013 14.0606 12.9659 15.1477ZM21.8612 27.3182C20.4824 27.3182 19.2726 26.9901 18.2319 26.3338C17.1978 25.6776 16.3891 24.7595 15.8058 23.5795C15.2291 22.3996 14.9407 21.0208 14.9407 19.4432C14.9407 17.8523 15.2291 16.4635 15.8058 15.277C16.3891 14.0904 17.1978 13.169 18.2319 12.5128C19.2726 11.8565 20.4824 11.5284 21.8612 11.5284C23.24 11.5284 24.4464 11.8565 25.4805 12.5128C26.5212 13.169 27.3299 14.0904 27.9066 15.277C28.49 16.4635 28.7816 17.8523 28.7816 19.4432C28.7816 21.0208 28.49 22.3996 27.9066 23.5795C27.3299 24.7595 26.5212 25.6776 25.4805 26.3338C24.4464 26.9901 23.24 27.3182 21.8612 27.3182ZM21.8612 25.2102C22.9085 25.2102 23.7703 24.9418 24.4464 24.4048C25.1225 23.8679 25.623 23.1619 25.9478 22.2869C26.2726 21.4119 26.435 20.464 26.435 19.4432C26.435 18.4223 26.2726 17.4711 25.9478 16.5895C25.623 15.7079 25.1225 14.9953 24.4464 14.4517C23.7703 13.9081 22.9085 13.6364 21.8612 13.6364C20.8138 13.6364 19.9521 13.9081 19.276 14.4517C18.5998 14.9953 18.0993 15.7079 17.7745 16.5895C17.4497 17.4711 17.2873 18.4223 17.2873 19.4432C17.2873 20.464 17.4497 21.4119 17.7745 22.2869C18.0993 23.1619 18.5998 23.8679 19.276 24.4048C19.9521 24.9418 20.8138 25.2102 21.8612 25.2102ZM37.4482 27.3182C36.0164 27.3182 34.7834 26.9801 33.7493 26.304C32.7153 25.6278 31.9198 24.6965 31.363 23.5099C30.8062 22.3234 30.5278 20.9678 30.5278 19.4432C30.5278 17.892 30.8128 16.5232 31.3829 15.3366C31.9596 14.1435 32.7617 13.2121 33.7891 12.5426C34.8232 11.8665 36.0297 11.5284 37.4084 11.5284C38.4823 11.5284 39.4501 11.7273 40.3118 12.125C41.1736 12.5227 41.8796 13.0795 42.4297 13.7955C42.9799 14.5114 43.3213 15.3466 43.4539 16.3011H41.1073C40.9283 15.6051 40.5306 14.9886 39.9141 14.4517C39.3043 13.9081 38.4823 13.6364 37.4482 13.6364C36.5334 13.6364 35.7314 13.875 35.042 14.3523C34.3592 14.8229 33.8256 15.4891 33.4411 16.3509C33.0633 17.206 32.8743 18.2102 32.8743 19.3636C32.8743 20.5436 33.06 21.571 33.4312 22.446C33.809 23.321 34.3393 24.0005 35.0221 24.4844C35.7115 24.9683 36.5202 25.2102 37.4482 25.2102C38.0581 25.2102 38.6116 25.1042 39.1087 24.892C39.6059 24.6799 40.0268 24.375 40.3715 23.9773C40.7162 23.5795 40.9615 23.1023 41.1073 22.5455H43.4539C43.3213 23.447 42.9932 24.259 42.4695 24.9815C41.9525 25.6974 41.2664 26.2675 40.4113 26.6918C39.5628 27.1094 38.5751 27.3182 37.4482 27.3182ZM45.7643 27V11.7273H48.1109V27H45.7643ZM46.9575 9.18182C46.5001 9.18182 46.1057 9.02604 45.7742 8.71449C45.4494 8.40294 45.287 8.02841 45.287 7.59091C45.287 7.15341 45.4494 6.77888 45.7742 6.46733C46.1057 6.15578 46.5001 6 46.9575 6C47.4149 6 47.806 6.15578 48.1308 6.46733C48.4622 6.77888 48.6279 7.15341 48.6279 7.59091C48.6279 8.02841 48.4622 8.40294 48.1308 8.71449C47.806 9.02604 47.4149 9.18182 46.9575 9.18182ZM55.7831 27.358C54.8153 27.358 53.937 27.1757 53.1482 26.8111C52.3594 26.4399 51.733 25.9062 51.2689 25.2102C50.8049 24.5076 50.5729 23.6591 50.5729 22.6648C50.5729 21.7898 50.7453 21.0805 51.09 20.5369C51.4347 19.9867 51.8954 19.5559 52.4721 19.2443C53.0488 18.9328 53.6851 18.7008 54.3812 18.5483C55.0838 18.3892 55.7898 18.2633 56.499 18.1705C57.4271 18.0511 58.1794 17.9616 58.7562 17.902C59.3395 17.8357 59.7637 17.7263 60.0289 17.5739C60.3007 17.4214 60.4365 17.1562 60.4365 16.7784V16.6989C60.4365 15.7178 60.1681 14.9555 59.6312 14.4119C59.1008 13.8684 58.2955 13.5966 57.215 13.5966C56.0947 13.5966 55.2164 13.8419 54.58 14.3324C53.9437 14.8229 53.4962 15.3466 53.2377 15.9034L51.0104 15.108C51.4081 14.1799 51.9384 13.4574 52.6013 12.9403C53.2708 12.4167 54 12.0521 54.7888 11.8466C55.5843 11.6345 56.3665 11.5284 57.1354 11.5284C57.6259 11.5284 58.1894 11.5881 58.8258 11.7074C59.4687 11.8201 60.0885 12.0554 60.6851 12.4134C61.2883 12.7713 61.7888 13.3116 62.1865 14.0341C62.5843 14.7566 62.7831 15.7244 62.7831 16.9375V27H60.4365V24.9318H60.3172C60.1581 25.2633 59.893 25.6179 59.5218 25.9957C59.1506 26.3736 58.6567 26.6951 58.0402 26.9602C57.4238 27.2254 56.6714 27.358 55.7831 27.358ZM56.1411 25.25C57.0691 25.25 57.8513 25.0677 58.4877 24.7031C59.1307 24.3385 59.6146 23.8679 59.9394 23.2912C60.2708 22.7145 60.4365 22.108 60.4365 21.4716V19.3239C60.3371 19.4432 60.1184 19.5526 59.7803 19.652C59.4489 19.7448 59.0644 19.8277 58.6269 19.9006C58.196 19.9669 57.7751 20.0265 57.3641 20.0795C56.9598 20.1259 56.6316 20.1657 56.3797 20.1989C55.7699 20.2784 55.1998 20.4077 54.6695 20.5866C54.1458 20.759 53.7216 21.0208 53.3968 21.3722C53.0786 21.7169 52.9195 22.1875 52.9195 22.7841C52.9195 23.5994 53.2211 24.2159 53.8243 24.6335C54.4342 25.0445 55.2064 25.25 56.1411 25.25ZM68.2928 6.63636V27H65.9462V6.63636H68.2928ZM76.6411 27.2486C75.4811 27.2486 74.4304 26.9503 73.4892 26.3537C72.5545 25.7505 71.8121 24.8655 71.2619 23.6989C70.7183 22.5256 70.4465 21.0871 70.4465 19.3835C70.4465 17.6335 70.7283 16.1785 71.2917 15.0185C71.8552 13.8518 72.6042 12.9801 73.5389 12.4034C74.4802 11.8201 75.5109 11.5284 76.6312 11.5284C77.4863 11.5284 78.1989 11.6742 78.769 11.9659C79.3457 12.2509 79.8097 12.6089 80.161 13.0398C80.519 13.464 80.7908 13.8816 80.9764 14.2926H81.1056V6.63636H85.3315V27H81.1554V24.554H80.9764C80.7775 24.9782 80.4958 25.3991 80.1312 25.8168C79.7733 26.2277 79.3059 26.5691 78.7292 26.8409C78.1591 27.1127 77.4631 27.2486 76.6411 27.2486ZM77.9835 23.8778C78.6662 23.8778 79.2429 23.6922 79.7136 23.321C80.1909 22.9432 80.5554 22.4162 80.8073 21.7401C81.0659 21.0639 81.1951 20.2718 81.1951 19.3636C81.1951 18.4555 81.0692 17.6667 80.8173 16.9972C80.5654 16.3277 80.2008 15.8106 79.7235 15.446C79.2463 15.0814 78.6662 14.8991 77.9835 14.8991C77.2875 14.8991 76.7008 15.0881 76.2235 15.4659C75.7463 15.8437 75.385 16.3674 75.1397 17.0369C74.8945 17.7064 74.7718 18.482 74.7718 19.3636C74.7718 20.2519 74.8945 21.0374 75.1397 21.7202C75.3916 22.3963 75.7529 22.9266 76.2235 23.3111C76.7008 23.6889 77.2875 23.8778 77.9835 23.8778ZM87.6941 27V11.7273H91.8006V14.392H91.9597C92.2381 13.4441 92.7055 12.7282 93.3617 12.2443C94.018 11.7538 94.7736 11.5085 95.6288 11.5085C95.8409 11.5085 96.0696 11.5218 96.3148 11.5483C96.5601 11.5748 96.7755 11.6113 96.9611 11.6577V15.4162C96.7623 15.3565 96.4872 15.3035 96.1359 15.2571C95.7845 15.2107 95.463 15.1875 95.1714 15.1875C94.5483 15.1875 93.9914 15.3234 93.5009 15.5952C93.017 15.8603 92.6325 16.2315 92.3475 16.7088C92.0691 17.1861 91.9299 17.7363 91.9299 18.3594V27H87.6941ZM104.221 27.2983C102.676 27.2983 101.341 26.9702 100.214 26.3139C99.0934 25.651 98.2283 24.7296 97.6185 23.5497C97.0086 22.3632 96.7037 20.9877 96.7037 19.4233C96.7037 17.8456 97.0086 16.4669 97.6185 15.2869C98.2283 14.1004 99.0934 13.179 100.214 12.5227C101.341 11.8598 102.676 11.5284 104.221 11.5284C105.765 11.5284 107.098 11.8598 108.218 12.5227C109.345 13.179 110.213 14.1004 110.823 15.2869C111.433 16.4669 111.738 17.8456 111.738 19.4233C111.738 20.9877 111.433 22.3632 110.823 23.5497C110.213 24.7296 109.345 25.651 108.218 26.3139C107.098 26.9702 105.765 27.2983 104.221 27.2983ZM104.241 24.017C104.943 24.017 105.53 23.8182 106.001 23.4205C106.471 23.0161 106.826 22.4659 107.065 21.7699C107.31 21.0739 107.432 20.2817 107.432 19.3935C107.432 18.5052 107.31 17.7131 107.065 17.017C106.826 16.321 106.471 15.7708 106.001 15.3665C105.53 14.9621 104.943 14.7599 104.241 14.7599C103.531 14.7599 102.935 14.9621 102.451 15.3665C101.974 15.7708 101.612 16.321 101.367 17.017C101.128 17.7131 101.009 18.5052 101.009 19.3935C101.009 20.2817 101.128 21.0739 101.367 21.7699C101.612 22.4659 101.974 23.0161 102.451 23.4205C102.935 23.8182 103.531 24.017 104.241 24.017ZM113.372 32.7273V11.7273H117.548V14.2926H117.737C117.923 13.8816 118.191 13.464 118.543 13.0398C118.9 12.6089 119.364 12.2509 119.935 11.9659C120.511 11.6742 121.227 11.5284 122.082 11.5284C123.196 11.5284 124.223 11.8201 125.165 12.4034C126.106 12.9801 126.858 13.8518 127.422 15.0185C127.985 16.1785 128.267 17.6335 128.267 19.3835C128.267 21.0871 127.992 22.5256 127.442 23.6989C126.898 24.8655 126.156 25.7505 125.214 26.3537C124.28 26.9503 123.232 27.2486 122.072 27.2486C121.25 27.2486 120.551 27.1127 119.974 26.8409C119.404 26.5691 118.937 26.2277 118.572 25.8168C118.208 25.3991 117.929 24.9782 117.737 24.554H117.608V32.7273H113.372ZM117.518 19.3636C117.518 20.2718 117.644 21.0639 117.896 21.7401C118.148 22.4162 118.513 22.9432 118.99 23.321C119.467 23.6922 120.047 23.8778 120.73 23.8778C121.419 23.8778 122.003 23.6889 122.48 23.3111C122.957 22.9266 123.319 22.3963 123.564 21.7202C123.816 21.0374 123.942 20.2519 123.942 19.3636C123.942 18.482 123.819 17.7064 123.574 17.0369C123.328 16.3674 122.967 15.8437 122.49 15.4659C122.013 15.0881 121.426 14.8991 120.73 14.8991C120.041 14.8991 119.457 15.0814 118.98 15.446C118.509 15.8106 118.148 16.3277 117.896 16.9972C117.644 17.6667 117.518 18.4555 117.518 19.3636Z" fill="white"/>
<path d="M26 7.5C24.2707 7.88504 23.2413 13.4453 22.7841 14.9444C22.059 17.3223 21.8159 19.4811 21.3979 21.8889C20.9025 24.7431 21.0098 27.6035 21.0098 30.5" stroke="#BFFF57" stroke-width="2" stroke-linecap="round"/>
</svg>
