<svg width="239" height="66" viewBox="0 0 239 66" fill="none" xmlns="http://www.w3.org/2000/svg">
<path d="M13.056 51.696C19.368 51.696 23.256 48.72 23.256 43.848C23.256 40.752 21.696 38.784 17.832 37.416C16.296 36.864 14.424 36.264 12.648 35.784C9.984 35.064 6.288 34.248 6.288 31.536C6.288 29.232 9 27.576 12.504 27.576C16.44 27.576 19.128 29.448 19.608 32.568L23.208 31.92C22.536 27.36 18.384 24.36 12.672 24.36C6.816 24.36 2.712 27.36 2.712 31.608C2.712 36.312 7.296 37.752 12.216 39.072C14.208 39.6 15.864 40.104 16.824 40.488C18.984 41.352 19.608 42.408 19.608 43.92C19.608 46.8 17.16 48.48 13.104 48.48C9.072 48.48 6.504 46.872 5.568 43.608L1.92 44.256C3.168 49.2 7.032 51.696 13.056 51.696ZM39.4028 51.72C47.0828 51.72 51.6908 46.176 51.6908 38.016C51.6908 29.976 47.1548 24.36 39.4028 24.36C31.8188 24.36 27.1388 29.88 27.1388 38.016C27.1388 46.08 31.6988 51.72 39.4028 51.72ZM39.4028 48.336C33.8348 48.336 30.8828 44.328 30.8828 38.016C30.8828 31.848 33.6908 27.744 39.4028 27.744C45.0428 27.744 47.9468 31.704 47.9468 38.016C47.9468 44.232 45.0668 48.336 39.4028 48.336ZM67.737 51.72C72.873 51.72 76.665 49.248 78.609 44.64L75.057 43.584C73.761 46.656 71.313 48.336 67.737 48.336C62.169 48.336 59.289 44.256 59.289 38.04C59.289 31.68 62.265 27.744 67.737 27.744C71.145 27.744 73.929 29.568 75.153 32.64L78.609 31.536C77.169 27.12 73.017 24.36 67.761 24.36C60.177 24.36 55.545 29.688 55.545 38.04C55.545 46.32 60.129 51.72 67.737 51.72ZM86.868 20.16V16.2H83.34V20.16H86.868ZM86.868 51V25.08H83.34V51H86.868ZM104.167 24.36C98.5751 24.36 94.8311 26.952 93.6071 31.68L96.9431 32.472C97.8311 29.184 100.183 27.6 104.119 27.6C108.847 27.6 110.983 29.808 110.983 34.896L103.183 35.88C96.8231 36.672 92.6231 38.76 92.6231 44.208C92.6231 48.864 96.0311 51.72 101.575 51.72C105.895 51.72 109.135 49.944 110.983 46.632V51H114.487V35.136C114.487 27.936 111.079 24.36 104.167 24.36ZM110.983 37.824C110.983 38.976 110.959 40.56 110.647 41.856C109.831 45.984 106.687 48.576 102.199 48.576C98.1911 48.576 96.1271 47.016 96.1271 44.016C96.1271 40.92 98.2391 39.408 103.519 38.736L110.983 37.824ZM124.743 51V15.72H121.215V51H124.743ZM150.226 16.44V28.56C148.666 25.944 146.122 24.36 142.234 24.36C135.442 24.36 130.498 29.952 130.498 38.04C130.498 46.056 135.442 51.72 142.234 51.72C146.098 51.72 148.666 50.16 150.226 47.52V51H155.986V16.44H150.226ZM143.434 29.784C147.898 29.784 150.226 33 150.226 38.04C150.226 42.936 148.09 46.296 143.434 46.296C138.922 46.296 136.618 43.056 136.618 38.04C136.618 33.168 138.874 29.784 143.434 29.784ZM177.256 24.408C176.848 24.384 176.44 24.36 176.032 24.36C172.024 24.36 169.696 26.112 168.424 28.464V25.08H162.64V51H168.424V36.72C168.424 32.28 170.632 29.784 174.52 29.784C175.6 29.784 176.512 29.808 177.256 29.976V24.408ZM192.792 51.72C200.544 51.72 205.728 46.128 205.728 38.04C205.728 29.952 200.568 24.36 192.792 24.36C185.112 24.36 179.904 29.952 179.904 38.04C179.904 46.104 185.064 51.72 192.792 51.72ZM192.792 46.296C188.448 46.296 186.024 43.224 186.024 38.04C186.024 32.832 188.376 29.784 192.792 29.784C197.184 29.784 199.608 32.832 199.608 38.04C199.608 43.176 197.16 46.296 192.792 46.296ZM216.8 62.52V47.52C218.36 50.136 220.904 51.72 224.768 51.72C231.56 51.72 236.504 46.128 236.504 38.04C236.504 30.024 231.584 24.36 224.768 24.36C220.904 24.36 218.36 25.92 216.8 28.56V25.08H211.016V62.52H216.8ZM223.568 46.296C219.104 46.296 216.8 43.08 216.8 38.04C216.8 33.144 218.912 29.784 223.568 29.784C228.104 29.784 230.384 33.024 230.384 38.04C230.384 42.912 228.152 46.296 223.568 46.296Z" fill="white"/>
<path d="M66.0396 36.616C66.1003 36.1305 67.5488 35.5229 67.965 34.7885C68.5573 33.7432 68.3892 32.0487 68.3892 30.905C68.3892 28.447 66.8173 26.9341 64.5384 26.1079C57.2411 23.4621 43.0441 25.1875 43.0001 35.3106C42.9731 41.5263 46.5 45.5 54 49C66.0396 53 69.5 52.5 78.6689 51.3012" stroke="#4D32EF" stroke-width="6" stroke-linecap="round"/>
<path d="M76.3952 48.5713C74.3198 50.638 71.5101 51.72 68.1122 51.72C63.9625 51.72 60.7125 50.1135 58.6152 47.3095C62.4638 48.4443 65.169 48.9504 67.6028 49.1063C70.3216 49.2804 72.8081 49.0298 76.3952 48.5713Z" fill="#4D32EF"/>
<path d="M70.9239 28.1994C70.6197 27.3692 70.1714 26.6114 69.5938 25.9392C69.0536 25.3106 68.4312 24.792 67.7669 24.3643C64.1488 24.4481 61.2265 25.7673 59.1895 28.0619C60.7953 28.1845 62.2932 28.4849 63.516 28.9282C63.5343 28.9348 63.5524 28.9415 63.5704 28.9482C64.8075 28.1629 66.327 27.744 68.1122 27.744C69.1108 27.744 70.0559 27.9006 70.9239 28.1994Z" fill="#4D32EF"/>
<path d="M50.7925 43.7722C50.0923 45.8015 48.9953 47.513 47.546 48.8219C46.5245 48.1223 45.5916 47.3786 44.7562 46.5794C46.303 45.2892 47.2912 43.3404 47.7125 40.9085C47.8029 41.0297 47.8969 41.1495 47.9944 41.2681C48.6933 42.1179 49.611 42.9483 50.7925 43.7722Z" fill="#4D32EF"/>
<path d="M49.5992 29.7379C48.4849 27.9144 46.9442 26.4846 45.023 25.5591C44.0118 26.2935 43.0952 27.1585 42.3301 28.165C44.4014 28.8203 45.9091 30.2195 46.8377 32.2148C47.4454 31.2189 48.3751 30.3951 49.5992 29.7379Z" fill="white"/>
</svg>
