<svg width="20" height="20" viewBox="0 0 20 20" fill="none" xmlns="http://www.w3.org/2000/svg">
<g clip-path="url(#clip0_273_425)">
<path d="M6.5625 18.75C6.80902 18.751 7.0533 18.7032 7.28125 18.6094C7.5092 18.5155 7.71631 18.3774 7.89063 18.2031C8.06495 18.0288 8.20302 17.8217 8.29688 17.5938C8.39074 17.3658 8.43853 17.1215 8.4375 16.875V13.125" stroke="#28A745" stroke-width="1.5" stroke-linecap="round" stroke-linejoin="round"/>
<path d="M13.4375 18.75C13.191 18.751 12.9467 18.7032 12.7188 18.6094C12.4908 18.5155 12.2837 18.3774 12.1094 18.2031C11.9351 18.0288 11.797 17.8217 11.7031 17.5938C11.6093 17.3658 11.5615 17.1215 11.5625 16.875V13.125" stroke="#28A745" stroke-width="1.5" stroke-linecap="round" stroke-linejoin="round"/>
<path d="M11.875 13.125H13.125C13.3715 13.124 13.6158 13.1718 13.8438 13.2656C14.0717 13.3595 14.2788 13.4976 14.4531 13.6719C14.6274 13.8462 14.7655 14.0533 14.8594 14.2813C14.9532 14.5092 15.001 14.7535 15 15V15.625C14.999 15.8715 15.0468 16.1158 15.1406 16.3438C15.2345 16.5717 15.3726 16.7788 15.5469 16.9531C15.7212 17.1275 15.9283 17.2655 16.1562 17.3594C16.3842 17.4533 16.6285 17.5011 16.875 17.5" stroke="#28A745" stroke-width="1.5" stroke-linecap="round" stroke-linejoin="round"/>
<path d="M8.125 13.125H6.875C6.62848 13.124 6.3842 13.1718 6.15625 13.2656C5.9283 13.3595 5.72119 13.4976 5.54687 13.6719C5.37255 13.8462 5.23448 14.0533 5.14062 14.2813C5.04676 14.5092 4.99897 14.7535 5 15V15.625C5.00103 15.8715 4.95324 16.1158 4.85938 16.3438C4.76552 16.5717 4.62745 16.7788 4.45313 16.9531C4.27881 17.1275 4.0717 17.2655 3.84375 17.3594C3.6158 17.4533 3.37152 17.5011 3.125 17.5" stroke="#28A745" stroke-width="1.5" stroke-linecap="round" stroke-linejoin="round"/>
<path d="M8.73438 5C8.3672 4.4254 7.86129 3.95246 7.26328 3.62479C6.66527 3.29711 5.9944 3.12523 5.3125 3.125C5.0093 3.64983 4.82737 4.23584 4.78006 4.84011C4.73274 5.44437 4.82124 6.05157 5.03906 6.61719C4.61188 7.24692 4.38081 7.98907 4.375 8.75V9.375C4.375 10.3696 4.77009 11.3234 5.47335 12.0267C6.17661 12.7299 7.13044 13.125 8.125 13.125H11.875C12.8696 13.125 13.8234 12.7299 14.5267 12.0267C15.2299 11.3234 15.625 10.3696 15.625 9.375V8.75C15.6192 7.98907 15.3881 7.24692 14.9609 6.61719C15.1788 6.05157 15.2673 5.44437 15.2199 4.84011C15.1726 4.23584 14.9907 3.64983 14.6875 3.125C14.0056 3.12523 13.3347 3.29711 12.7367 3.62479C12.1387 3.95246 11.6328 4.4254 11.2656 5H8.73438Z" stroke="#28A745" stroke-width="1.5" stroke-linecap="round" stroke-linejoin="round"/>
</g>
<defs>
<clipPath id="clip0_273_425">
<rect width="20" height="20" fill="white"/>
</clipPath>
</defs>
</svg>
