<svg width="20" height="20" viewBox="0 0 20 20" fill="none" xmlns="http://www.w3.org/2000/svg">
<g clip-path="url(#clip0_273_387)">
<path d="M9.99945 6.8748C9.99945 5.15605 11.4448 3.72636 13.1635 3.7498C13.7654 3.75674 14.3525 3.93739 14.8542 4.27001C15.3559 4.60263 15.7509 5.07308 15.9916 5.6248H18.7494L16.226 8.14823C16.0632 10.6831 14.9411 13.0607 13.0879 14.7978C11.2347 16.5349 8.78949 17.501 6.24945 17.4998C3.74945 17.4998 3.12445 16.5623 3.12445 16.5623C3.12445 16.5623 5.62445 15.6248 6.87445 13.7498C6.87445 13.7498 1.87445 11.2498 3.12445 4.3748C3.12445 4.3748 6.24945 7.4998 9.99945 8.1248V6.8748Z" stroke="#1DA1F2" stroke-width="1.5" stroke-linecap="round" stroke-linejoin="round"/>
</g>
<defs>
<clipPath id="clip0_273_387">
<rect width="20" height="20" fill="white"/>
</clipPath>
</defs>
</svg>
